<?xml version="1.0" standalone="no"?><!DOCTYPE svg PUBLIC "-//W3C//DTD SVG 1.1//EN" "http://www.w3.org/Graphics/SVG/1.1/DTD/svg11.dtd"><svg t="1587712905787" class="icon" viewBox="0 0 1024 1024" version="1.1" xmlns="http://www.w3.org/2000/svg" p-id="1452" xmlns:xlink="http://www.w3.org/1999/xlink" width="200" height="200"><defs><style type="text/css">@font-face { font-family: uc-nexus-iconfont; src: url("chrome-extension://pogijhnlcfmcppgimcaccdkmbedjkmhi/res/font_9qmmi8b8jsxxbt9.woff") format("woff"), url("chrome-extension://pogijhnlcfmcppgimcaccdkmbedjkmhi/res/font_9qmmi8b8jsxxbt9.ttf") format("truetype"); }
</style></defs><path d="M287.056 564.539m-28 0a28 28 0 1 0 56 0 28 28 0 1 0-56 0Z" fill="#FFC543" p-id="1453"></path><path d="M287.056 607.539c-23.71 0-43-19.29-43-43s19.29-43 43-43 43 19.29 43 43-19.289 43-43 43z m0-56c-7.168 0-13 5.832-13 13s5.832 13 13 13 13-5.832 13-13-5.831-13-13-13z" fill="#2B2B2B" p-id="1454"></path><path d="M608.633 560.903c10.751 24.628 38.528 36.272 62.041 26.007 23.513-10.265 33.859-38.55 23.107-63.178l-57.358-131.389c-10.751-24.628-38.528-36.272-62.041-26.007-23.513 10.265-33.859 38.55-23.107 63.178l57.358 131.389z" fill="#FC9047" p-id="1455"></path><path d="M652.819 605.641h-0.004c-24.92-0.002-47.658-15.207-57.93-38.736l-57.357-131.389c-14.043-32.169-0.202-69.37 30.854-82.927a59.277 59.277 0 0 1 23.858-4.984c24.918 0 47.657 15.205 57.931 38.737l57.357 131.39c14.043 32.168 0.202 69.368-30.854 82.926a59.278 59.278 0 0 1-23.855 4.983zM592.24 377.604c-4.101 0-8.09 0.834-11.856 2.478-15.895 6.939-22.786 26.421-15.361 43.43l57.357 131.39c5.499 12.597 17.446 20.737 30.438 20.738h0.002c4.099 0 8.087-0.833 11.854-2.478 15.895-6.939 22.786-26.422 15.361-43.43l-57.357-131.389c-5.501-12.597-17.449-20.739-30.438-20.739z" fill="#2B2B2B" p-id="1456"></path><path d="M509.98 237.288m-105.88 0a105.88 105.88 0 1 0 211.76 0 105.88 105.88 0 1 0-211.76 0Z" fill="#F2D8AA" p-id="1457"></path><path d="M444.21 337.218c-55.101-36.265-70.427-110.598-34.162-165.698 22.203-33.735 59.598-53.875 100.03-53.875 23.368 0 46.076 6.817 65.672 19.713 26.692 17.568 44.945 44.478 51.397 75.774s0.33 63.232-17.237 89.924c-22.203 33.734-59.597 53.875-100.028 53.875-23.368 0-46.076-6.817-65.672-19.713z m-11.188-150.58c-27.928 42.434-16.126 99.678 26.308 127.607 15.094 9.934 32.575 15.184 50.553 15.184 31.15 0 59.956-15.511 77.055-41.492 13.53-20.556 18.244-45.15 13.275-69.252-4.969-24.101-19.027-44.826-39.582-58.354-15.094-9.934-32.575-15.184-50.553-15.184-31.15-0.001-59.956 15.51-77.056 41.491zM425.303 582.761c-3.931 0-7.878-0.136-11.846-0.407-8.265-0.566-14.506-7.725-13.94-15.99 0.566-8.264 7.731-14.519 15.99-13.939 54.966 3.764 104.682-23.305 147.788-80.457 33.365-44.237 49.859-90.57 50.021-91.033 2.746-7.811 11.302-11.926 19.117-9.186 7.813 2.74 11.931 11.287 9.196 19.103-0.715 2.044-17.928 50.617-53.906 98.547-46.001 61.281-101.941 93.362-162.42 93.362z" fill="#2B2B2B" p-id="1458"></path><path d="M412.116 482.529c-13.715 0-28.32-1.155-43.728-3.861-8.16-1.434-13.612-9.21-12.179-17.369 1.434-8.16 9.212-13.611 17.369-12.179 102.343 17.981 164.912-40.476 165.532-41.068 5.989-5.724 15.484-5.508 21.208 0.482 5.724 5.989 5.508 15.484-0.481 21.208-0.767 0.732-19.135 18.091-51.886 32.67-22.402 9.971-55.193 20.117-95.835 20.117zM862.947 865.878c-2.271 0-4.574-0.517-6.74-1.608-0.466-0.235-47.188-23.841-96.037-53.226-28.892-17.379-52.944-33.397-71.49-47.609-24.95-19.12-40.116-35.098-46.365-48.846-8.618-18.959-4.135-51.413 13.706-99.217 12.323-33.019 26.467-61.075 27.063-62.254 3.74-7.392 12.766-10.354 20.156-6.613 7.392 3.739 10.353 12.762 6.614 20.154-0.14 0.275-14.078 27.944-25.813 59.436-20.481 54.961-16.211 72.128-14.415 76.08 3.648 8.025 21.28 32.195 106.009 83.162 47.9 28.813 93.621 51.913 94.077 52.144 7.397 3.729 10.371 12.749 6.643 20.146-2.639 5.231-7.923 8.251-13.408 8.251zM450.497 907.874c-0.438 0-0.879-0.02-1.323-0.058-8.252-0.722-14.358-7.996-13.637-16.249 0.559-6.398 13.906-157.234 32.514-203.755 8.609-21.522 34.843-47.574 80.202-79.645 32.111-22.704 61.531-39.591 62.769-40.298 7.189-4.115 16.353-1.621 20.468 5.567s1.623 16.354-5.565 20.469c-44.131 25.269-118.453 76.132-130.019 105.048-14.085 35.213-26.78 152.863-30.483 195.225-0.683 7.809-7.233 13.696-14.926 13.696z" fill="#2B2B2B" p-id="1459"></path><path d="M279.791638 419.712138a40.498 38.248 55.269 1 0 62.86716-43.581628 40.498 38.248 55.269 1 0-62.86716 43.581628Z" fill="#F94B4B" p-id="1460"></path><path d="M313.359 452.683c-18.117 0-35.269-9.139-45.882-24.448-8.354-12.051-11.768-26.51-9.612-40.714 2.205-14.524 9.93-27.037 21.753-35.233 8.659-6.003 18.859-9.176 29.498-9.176 18.117 0 35.269 9.139 45.882 24.448 17.435 25.149 11.989 59.219-12.14 75.947-8.661 6.003-18.861 9.176-29.499 9.176z m-4.244-79.572c-4.5 0-8.79 1.325-12.405 3.831-4.97 3.445-8.232 8.801-9.185 15.081-1.002 6.6 0.634 13.39 4.606 19.119 5.01 7.227 12.946 11.541 21.228 11.541 4.5 0 8.79-1.325 12.405-3.831 10.535-7.304 12.589-22.646 4.579-34.201-5.01-7.226-12.946-11.54-21.228-11.54z" fill="#2B2B2B" p-id="1461"></path><path d="M367.498 460.505l-28-26" fill="#F94B4B" p-id="1462"></path><path d="M349.685 423.533l28 26.002-20.414 21.983-28-26.002z" fill="#2B2B2B" p-id="1463"></path><path d="M143.498 633.505h209c13.807 0 25 11.193 25 25s-11.193 25-25 25h-209" fill="#FFFFFF" p-id="1464"></path><path d="M352.498 698.505h-209v-30h209c5.514 0 10-4.486 10-10s-4.486-10-10-10h-209v-30h209c22.056 0 40 17.944 40 40s-17.944 40-40 40z" fill="#2B2B2B" p-id="1465"></path></svg>