<?xml version="1.0" standalone="no"?><!DOCTYPE svg PUBLIC "-//W3C//DTD SVG 1.1//EN" "http://www.w3.org/Graphics/SVG/1.1/DTD/svg11.dtd"><svg t="1620605410269" class="icon" viewBox="0 0 1024 1024" version="1.1" xmlns="http://www.w3.org/2000/svg" p-id="4173" xmlns:xlink="http://www.w3.org/1999/xlink" width="64" height="64"><defs><style type="text/css"></style></defs><path d="M404.992 911.872l-9.216 5.632v-304.128l9.216-5.632z" fill="#AEB1B5" p-id="4174"></path><path d="M386.56 911.872l9.216 5.632v-304.128l-9.216-5.632z" fill="#DBDBDB" p-id="4175"></path><path d="M662.016 763.904l-9.216 5.12V465.408l9.216-5.632z" fill="#AEB1B5" p-id="4176"></path><path d="M643.584 763.904l9.216 5.12V465.408l-9.216-5.632z" fill="#DBDBDB" p-id="4177"></path><path d="M740.864 715.776l-9.216 5.12V416.768l9.216-5.12z" fill="#AEB1B5" p-id="4178"></path><path d="M722.432 715.776l9.216 5.12V416.768l-9.216-5.12z" fill="#DBDBDB" p-id="4179"></path><path d="M988.672 327.168v245.76l9.216-5.632V327.168z" fill="#AEB1B5" p-id="4180"></path><path d="M978.944 327.168v240.128l9.728 5.632v-245.76z" fill="#DBDBDB" p-id="4181"></path><path d="M125.952 753.664l-9.216 5.632V455.168l9.216-5.12z" fill="#AEB1B5" p-id="4182"></path><path d="M107.52 753.664l9.216 5.632V455.168l-9.216-5.12z" fill="#DBDBDB" p-id="4183"></path><path d="M382.976 605.696l-9.216 5.632V307.2l9.216-5.632z" fill="#AEB1B5" p-id="4184"></path><path d="M364.032 605.696l9.728 5.632V307.2l-9.728-5.632z" fill="#DBDBDB" p-id="4185"></path><path d="M461.824 557.568l-9.216 5.632V259.072l9.216-5.632z" fill="#AEB1B5" p-id="4186"></path><path d="M442.88 557.568l9.728 5.632V259.072l-9.728-5.632z" fill="#DBDBDB" p-id="4187"></path><path d="M709.632 175.616V414.72l9.216-5.12V175.616z" fill="#AEB1B5" p-id="4188"></path><path d="M699.904 175.616V409.6l9.728 5.12V175.616z" fill="#DBDBDB" p-id="4189"></path><path d="M0 499.2l346.112 199.68L1024 307.712l-347.136-201.216z" fill="#2C98DB" p-id="4190"></path><path d="M346.624 685.568L23.04 498.688l2.56-1.536 650.752-377.344 1.024 0.512 324.096 187.392-3.072 1.536-651.776 376.32zM30.72 498.688L346.624 680.96l647.168-373.248-317.44-183.296L30.72 498.688z" fill="#FFFFFF" p-id="4191"></path><path d="M346.112 698.88v20.48L1024 328.192v-20.48z" fill="#1E72C6" p-id="4192"></path><path d="M0 499.2v20.48l346.112 199.68v-20.48z" fill="#2382C9" p-id="4193"></path><path d="M180.38784 585.49248l650.752-376.10496 2.048 3.54304-650.752 376.11008z" fill="#FFFFFF" p-id="4194"></path><path d="M342.528 243.712h6.656V307.2h-6.656z" fill="#0F0F0F" p-id="4195"></path><path d="M348.672 243.712c0 1.024-1.536 2.048-3.072 2.048-2.048 0-3.072-1.024-3.072-2.048s1.536-2.048 3.072-2.048c2.048 0 3.072 1.024 3.072 2.048z" fill="#353535" p-id="4196"></path><path d="M348.672 307.2c0 1.024-1.536 2.048-3.072 2.048-2.048 0-3.072-1.024-3.072-2.048s1.536-2.048 3.072-2.048c2.048 0 3.072 1.024 3.072 2.048z" fill="#0F0F0F" p-id="4197"></path><path d="M679.936 443.904l-332.8-194.048c-0.512-0.512-0.512-1.024-0.512-1.536 0.512-0.512 1.024-0.512 1.536-0.512l332.288 194.048c0.512 0.512 0.512 1.024 0.512 1.536 0 0.512-0.512 0.512-1.024 0.512zM650.752 432.128s-0.512 0 0 0L372.224 269.824c-0.512-0.512-0.512-1.024-0.512-1.536 0.512-0.512 1.024-0.512 1.536-0.512L651.264 430.08c0.512 0.512 0.512 1.024 0.512 1.536-0.512 0.512-0.512 0.512-1.024 0.512zM650.752 438.272s-0.512 0 0 0L372.224 275.456c-0.512-0.512-0.512-1.024-0.512-1.536 0.512-0.512 1.024-0.512 1.536-0.512l278.016 162.304c0.512 0.512 0.512 1.024 0.512 1.536-0.512 0.512-0.512 1.024-1.024 1.024zM650.752 443.392s-0.512 0 0 0L372.224 281.088c-0.512-0.512-0.512-1.024-0.512-1.536 0.512-0.512 1.024-0.512 1.536-0.512l278.016 162.304c0.512 0.512 0.512 1.024 0.512 1.536-0.512 0.512-0.512 0.512-1.024 0.512zM650.752 449.536s-0.512 0 0 0L372.224 287.232c-0.512-0.512-0.512-1.024-0.512-1.536 0.512-0.512 1.024-0.512 1.536-0.512l278.016 162.304c0.512 0.512 0.512 1.024 0.512 1.536-0.512 0.512-0.512 0.512-1.024 0.512zM677.888 487.936s-0.512 0 0 0L347.136 294.912c-0.512-0.512-0.512-1.024-0.512-1.536 0.512-0.512 1.024-0.512 1.536-0.512l330.24 193.024c0.512 0.512 0.512 1.024 0.512 1.536-0.512 0.512-0.512 0.512-1.024 0.512zM650.752 455.168s-0.512 0 0 0L372.224 292.352c-0.512-0.512-0.512-1.024-0.512-1.536 0.512-0.512 1.024-0.512 1.536-0.512l278.016 162.304c0.512 0.512 0.512 1.024 0.512 1.536-0.512 0.512-0.512 1.024-1.024 1.024zM650.752 460.8s-0.512 0 0 0L372.224 298.496c-0.512-0.512-0.512-1.024-0.512-1.536 0.512-0.512 1.024-0.512 1.536-0.512l278.016 162.304c0.512 0.512 0.512 1.024 0.512 1.536-0.512 0.512-0.512 0.512-1.024 0.512zM650.752 466.432s-0.512 0 0 0L372.224 303.616c-0.512-0.512-0.512-1.024-0.512-1.536 0.512-0.512 1.024-0.512 1.536-0.512l278.016 162.304c0.512 0.512 0.512 1.024 0.512 1.536-0.512 0.512-0.512 1.024-1.024 1.024z" fill="#E2E2E2" p-id="4198"></path><path d="M676.864 438.272h6.656v62.464h-6.656z" fill="#0F0F0F" p-id="4199"></path><path d="M683.52 438.272c0 1.024-1.536 2.048-3.072 2.048-2.048 0-3.072-1.024-3.072-2.048s1.536-2.048 3.072-2.048 3.072 0.512 3.072 2.048z" fill="#353535" p-id="4200"></path><path d="M683.52 500.736c0 1.024-1.536 2.048-3.072 2.048-2.048 0-3.072-1.024-3.072-2.048s1.536-2.048 3.072-2.048 3.072 0.512 3.072 2.048z" fill="#0F0F0F" p-id="4201"></path><path d="M382.976 314.368l-2.048-1.024v-45.056l2.048 0.512zM392.704 320l-2.048-1.024v-45.056l2.048 0.512zM401.408 325.12l-2.048-0.512v-45.568l2.048 1.024zM411.136 330.752l-2.048-0.512v-45.568l2.048 1.024zM420.864 336.384l-2.048-0.512v-45.568l2.048 1.024zM430.592 342.016l-2.048-0.512v-45.568l2.048 1.024zM439.296 347.648l-1.536-1.024v-45.056l1.536 0.512zM449.024 353.28l-2.048-1.024V307.2l2.048 0.512z" fill="#E2E2E2" p-id="4202"></path><path d="M458.752 358.912l-2.048-1.024v-45.056l2.048 0.512zM467.968 364.032L465.92 363.52v-45.568l2.048 1.024zM477.184 369.664l-2.048-0.512v-45.568l2.048 1.024zM486.912 375.296l-2.048-0.512v-45.568l2.048 1.024zM496.64 380.928l-2.048-0.512v-45.056l2.048 0.512zM505.856 386.56l-2.048-1.024v-45.056l2.048 0.512zM515.072 392.192l-2.048-1.024v-45.056l2.048 0.512z" fill="#E2E2E2" p-id="4203"></path><path d="M524.288 397.312l-2.048-0.512v-45.568l2.048 1.024zM534.016 402.944l-2.048-0.512v-45.568l2.048 1.024zM543.744 408.576l-2.048-0.512v-45.568l2.048 1.024zM552.96 414.208l-1.536-0.512v-45.568l1.536 1.024zM562.176 419.328l-2.048-0.512V373.76l2.048 0.512zM571.904 425.472l-2.048-1.024v-45.056l2.048 0.512z" fill="#E2E2E2" p-id="4204"></path><path d="M581.632 430.592l-2.048-1.024v-45.056l2.048 0.512zM591.36 436.224l-2.048-1.024v-45.056l2.048 0.512zM601.6 441.856l-2.048-1.024v-45.056l2.048 0.512zM611.328 448.512l-2.048-1.024v-45.056l2.048 0.512z" fill="#E2E2E2" p-id="4205"></path><path d="M621.568 454.144l-1.536-1.024v-45.056l1.536 0.512zM631.808 459.776l-2.048-0.512v-45.568l2.048 1.024zM641.536 465.408l-2.048-0.512v-45.568l2.048 1.024z" fill="#E2E2E2" p-id="4206"></path><path d="M649.728 425.472h2.048v45.056h-2.048zM371.712 263.68h2.048v45.056h-2.048z" fill="#E2E2E2" p-id="4207"></path><path d="M659.968 566.272l-261.12 151.04v17.92l261.12-150.528zM735.744 522.752v18.432L993.28 392.192v-17.92z" fill="#AEB1B5" p-id="4208"></path></svg>