<?xml version="1.0" standalone="no"?><!DOCTYPE svg PUBLIC "-//W3C//DTD SVG 1.1//EN" "http://www.w3.org/Graphics/SVG/1.1/DTD/svg11.dtd"><svg t="1620605340921" class="icon" viewBox="0 0 1024 1024" version="1.1" xmlns="http://www.w3.org/2000/svg" p-id="3484" xmlns:xlink="http://www.w3.org/1999/xlink" width="64" height="64"><defs><style type="text/css"></style></defs><path d="M396.76 69.855c-177.403 0-321.73 159.52-321.73 355.594 0 170.155 108.728 312.72 253.404 347.45l-19.021 159.154a19.755 19.755 0 0 0 19.614 22.092H464.49a19.744 19.744 0 0 0 19.615-22.103L465.078 772.9c144.682-34.724 253.41-177.278 253.41-347.45 0-196.073-144.327-355.594-321.729-355.594z" fill="#625D63" p-id="3485"></path><path d="M442.236 914.635h-90.954l16.155-135.132c9.663 0.971 19.428 1.541 29.316 1.541s19.648-0.576 29.312-1.54l16.17 135.13z" fill="#D5D3D1" p-id="3486"></path><path d="M396.76 741.534c-103.225 0-193.642-62.421-242.844-155.31h485.692c-49.208 92.889-139.625 155.31-242.849 155.31z" fill="#FBFED7" p-id="3487"></path><path d="M657.348 546.713H136.17c-13.913-37.36-21.629-78.316-21.629-121.264 0-174.286 126.603-316.084 282.218-316.084S678.977 251.157 678.977 425.45c0 42.948-7.716 83.904-21.63 121.264z" fill="#FE7A83" p-id="3488"></path><path d="M849.256 139.472c-54.981 0-99.719 44.732-99.719 99.713s44.738 99.72 99.72 99.72 99.713-44.738 99.713-99.72-44.732-99.713-99.714-99.713z" fill="#625D63" p-id="3489"></path><path d="M849.256 299.394c-33.2 0-60.208-27.008-60.208-60.209 0-33.194 27.008-60.202 60.208-60.202 33.195 0 60.203 27.008 60.203 60.202 0 33.2-27.008 60.209-60.203 60.209z" fill="#FFD82C" p-id="3490"></path></svg>