<?xml version="1.0" standalone="no"?><!DOCTYPE svg PUBLIC "-//W3C//DTD SVG 1.1//EN" "http://www.w3.org/Graphics/SVG/1.1/DTD/svg11.dtd"><svg t="1620605429153" class="icon" viewBox="0 0 1024 1024" version="1.1" xmlns="http://www.w3.org/2000/svg" p-id="4342" xmlns:xlink="http://www.w3.org/1999/xlink" width="64" height="64"><defs><style type="text/css"></style></defs><path d="M531.828 291.36c40.922 0.843 75.094-31.641 75.938-72.563s-31.641-75.094-72.563-75.938h-0.422c-40.922-0.422-74.672 32.063-75.515 72.985s31.64 74.672 72.562 75.515z" fill="#C0D36F" p-id="4343"></path><path d="M533.516 301.906h-1.688c-22.781-0.422-43.875-9.703-59.484-26.156-15.61-16.453-24.047-37.547-23.625-60.328 0.843-45.984 39.234-83.11 85.218-83.11h1.266c46.828 0.844 83.953 39.657 82.688 86.907-0.422 45.984-38.391 82.687-84.375 82.687z m-1.266-21.094c35.016 0.844 64.547-27 64.969-62.437 0.422-16.875-5.907-33.328-17.719-45.563-11.813-12.234-27.422-19.406-44.719-19.828-35.437-0.422-64.547 27.844-64.968 62.86-0.422 16.875 5.906 32.906 17.718 45.14 11.813 12.657 27.422 19.407 44.719 19.829z" fill="#25274B" p-id="4344"></path><path d="M891.688 859.203L763.438 703.11V554.187l45.14-23.203-144.281-283.078-136.688 69.61 29.532 57.796-35.016 46.829-180.563-12.657-1.687 23.204h-19.406c0-22.36-26.157-40.5-58.219-40.5s-58.219 18.984-58.219 41.343 26.156 40.5 58.219 40.5c27 0 49.781-13.078 56.11-30.797h20.671l-1.687 21.516s139.64 9.703 185.203 12.656l13.922 10.547 6.75-8.86c0.844 0 10.547 0.844 10.547 0.844l1.265-16.453 27.422-36.703 20.25 39.657-2.11 6.75-96.609 37.125a21.445 21.445 0 0 0-20.25-14.344c-11.812 0-21.515 9.703-21.515 21.515S471.922 539 483.734 539c5.485 0 10.125-2.11 13.922-5.484l11.39 29.53 119.813-45.562 5.907 11.813-111.375 91.547-20.25 4.218 2.109 10.547-7.172 5.907 11.39 13.922 48.516 231.187 50.203-10.547-46.406-220.64 96.61-79.313 13.078 25.313 40.5-20.672V685.39l-18.14 14.765 18.14 21.938v1.687h1.265l138.797 168.75 39.657-33.328z" fill="#C0D36F" p-id="4345"></path><path d="M850.766 907.297L708.172 734.328h-6.75v-8.437l-22.36-27 22.36-18.141v-82.266l-34.594 17.72L655.016 593l-81.422 66.656 47.25 224.86-70.875 14.765-50.203-239.203-16.454-20.25 10.547-8.437-2.953-14.766 27.844-5.906 91.547-75.094-107.156 40.922-10.97-28.266c-2.53 0.844-5.483 1.266-8.437 1.266-17.718 0-32.062-14.344-32.062-32.063 0-17.718 14.765-32.484 32.484-32.062-58.64-3.797-146.812-10.125-147.656-10.125l-10.547-0.844 1.688-20.672h-2.532c-10.546 18.563-35.015 30.797-62.859 30.797-38.39 0-68.766-22.36-68.766-51.047s30.797-51.89 68.766-51.89c33.75 0 61.172 17.296 67.5 40.5h0.422l1.687-24.047 185.204 13.078 27.843-37.125-31.218-61.172 155.25-79.313 153.984 301.641-48.938 24.89v138.798l132.47 161.156-55.688 47.25z m-128.25-189l130.78 159.047 23.626-19.828L752.89 706.484V547.437l41.343-21.515L659.656 262.25l-117.703 59.906 27.844 54.422-42.188 56.531-175.922-12.234-2.53 34.172c33.327 2.531 136.687 9.281 174.656 11.812h2.953l8.015 5.907 3.375-4.641h5.907l0.843-8.86 39.235-52.734 29.953 58.64-5.063 15.61-104.625 40.078 10.969 27.844 118.969-45.14 13.922 27.843-119.813 98.719-12.656 2.531 1.265 6.328-3.796 3.375 6.328 7.594 46.828 223.172 29.531-6.328-45.984-215.578 111.797-91.547 14.343 27.422 46.407-23.625v126.984l-13.922 11.39 13.922 16.454zM483.734 506.516c-5.906 0-10.968 5.062-10.968 10.968s5.062 10.97 10.968 10.97c2.532 0 4.641-0.845 6.75-2.954l5.907-5.063-2.532-6.75c-1.265-4.218-5.484-7.171-10.125-7.171z m3.797-20.672c8.438 0.843 16.031 5.062 21.094 11.812l15.188-5.906-5.063-3.797a478.359 478.359 0 0 0-31.219-2.11z m77.625-18.563l-0.843 8.438 25.734-10.125-9.703-18.985-15.188 20.672zM262.25 402.734c-25.313 0-47.672 14.344-47.672 30.797 0 16.032 21.938 29.953 47.672 29.953 21.938 0 41.344-10.125 45.984-23.625l1.688-4.218v-2.954c0-16.03-21.938-29.953-47.672-29.953z" fill="#25274B" p-id="4346"></path><path d="M406.531 582.875H142.86v47.25h263.672c13.078 0 23.625-10.547 23.625-23.625s-10.547-23.625-23.625-23.625z" fill="#C0D36F" p-id="4347"></path><path d="M406.531 640.672H132.312v-68.344h274.22c18.984 0 34.171 15.188 34.171 34.172s-15.187 34.172-34.172 34.172z m-253.125-21.094h253.125c7.172 0 13.078-5.906 13.078-13.078s-5.906-13.078-13.078-13.078H153.406v26.156z" fill="#25274B" p-id="4348"></path><path d="M393.031 663.875H142.86v25.734h275.907c0-14.343-11.813-25.734-25.735-25.734z" fill="#C0D36F" p-id="4349"></path><path d="M429.313 700.156h-297v-46.828H393.03c19.828 0 36.282 16.453 36.282 36.281v10.547z m-275.907-21.093H404c-2.953-2.954-6.75-4.641-10.969-4.641H153.406v4.64z" fill="#25274B" p-id="4350"></path></svg>