<?xml version="1.0" standalone="no"?><!DOCTYPE svg PUBLIC "-//W3C//DTD SVG 1.1//EN" "http://www.w3.org/Graphics/SVG/1.1/DTD/svg11.dtd"><svg t="1620605373733" class="icon" viewBox="0 0 1024 1024" version="1.1" xmlns="http://www.w3.org/2000/svg" p-id="3618" xmlns:xlink="http://www.w3.org/1999/xlink" width="64" height="64"><defs><style type="text/css"></style></defs><path d="M369.6 162.8c-121.7-15.8-233.2 70-249.1 191.7-10.7 82.3 24.6 163.6 86.6 210.1-0.1 0.1-0.1 0.2-0.1 0.3 30.9 22.7 48.8 61.1 43.5 101.9-0.3 2.3-0.7 4.6-1.1 6.9h0.3l-17.8 136.7c-2.8 21.4 12.4 41.1 33.8 43.9l27.6 3.6c21.4 2.8 41.1-12.4 43.9-33.8L357.6 667c8.5-32.7 31.5-58.8 61-72 74.4-28 131.8-98.7 142.7-183 15.9-121.8-69.9-233.4-191.7-249.2z" fill="#E26D33" p-id="3619"></path><path d="M327.1 164.6c96.1 34.6 158.7 132.3 145 237.8-11 84.3-68.3 155-142.7 183-29.5 13.2-52.6 39.3-61 72L248 814.5c-2.8 21.4-0.1 44.7-0.1 44.7 21.4 2.8 41.1-12.4 43.9-33.8l20.4-157.1c8.5-32.7 31.5-58.8 61-72 74.4-28 131.8-98.7 142.7-183 15.7-120.8-68.7-231.5-188.8-248.7z" fill="#CE6232" p-id="3620"></path><path d="M476.8 231c-39.7-47.9-95.7-77.6-157.6-83.4-62-5.8-122.5 12.8-170.4 52.5-47.9 39.7-77.6 95.7-83.4 157.6-4 42 3.3 84.7 21.1 123.3 16.1 35 40 65.1 69.4 87.6l-0.3 0.5 8.1 5.6c29.5 20.2 45.8 54.8 42.4 90.4-0.2 2.3-13.6 144.2-13.6 144.2-1.2 13.2 2.8 26.2 11.3 36.5s20.5 16.7 33.7 17.9l27.7 2.6c8.8 0.8 17.5-0.7 25.3-4.3 4-1.8 7.7-4.2 11.2-7 10.3-8.5 16.7-20.5 17.9-33.7l1.5-15.9 12.3-129.9 1.1-11.2c6.6-28.8 25.6-52.8 52.3-66 2.2-0.9 4.4-1.9 6.5-2.9 74.9-34.3 127.9-109.6 135.9-193.9 5.9-62-12.7-122.6-52.4-170.5zM134.4 517.7l84.9 8-6.7 71.3c-7.3-13-17.1-24.6-28.9-34.2l0.3-0.5-7.9-5.5c-15.7-11-29.7-24.2-41.7-39.1z m188.4 17.8c-7.4 16.1-24.3 26.6-43 24.9-11.4-1.1-21.7-6.5-28.9-15.3-4.2-5.1-7.1-10.9-8.6-17.2l58 5.5 22.5 2.1z m-34.7 302.9c-5.9 4.9-13.2 7.1-20.8 6.4l-27.7-2.6c-7.5-0.7-14.3-4.3-19.2-10.2-4.9-5.9-7.1-13.2-6.4-20.8 0 0 1.1-12.1 2.8-29.4l20.7-219.5c10.7 11.1 24.8 18 40.3 19.5 11.6 1.1 22.8-1 32.7-5.5 4-1.8 7.8-4.1 11.3-6.6l-8.6 91.1-15 158.4c-0.6 7.5-4.3 14.3-10.1 19.2z m90.1-260l-0.3 0.1-0.3 0.1c-14.6 7.2-27.4 17-37.7 28.9l6.6-69.9 85 8c-16 13.6-33.9 24.7-53.3 32.8z m129.6-179c-4.5 47.7-24.9 92.3-56 126.7l-103.3-9.8-52.4-4.9-178-16.8C94 454.9 82.3 407.2 86.7 359.7c5.3-56.2 32.2-107 75.7-143.1 43.5-36 98.5-52.9 154.7-47.6 56.2 5.3 107 32.2 143.1 75.7 36 43.5 52.9 98.5 47.6 154.7z" fill="" p-id="3621"></path><path d="M580.3 244.1c-103.1-61.7-234.9-25.1-294.4 81.8-40.3 72.3-38.9 161.4-0.7 228.6-0.1 0.1-0.2 0.1-0.2 0.2 19.2 33.1 21 75.6 1 111.4-1.1 2-70.2 126.1-70.2 126.1-10.4 18.8-4.2 43 13.9 53.8l23.3 14c18.1 10.8 41.5 4.3 51.9-14.4l76.8-138c19.8-27.1 50.1-42.4 81.5-43.3 77 2.7 154.8-40.8 196-114.8 59.5-106.9 24.2-243.7-78.9-305.4z" fill="#FFFFFF" p-id="3622"></path><path d="M628.9 271.5c-104.1-65.1-241.2-33.5-306.3 70.6-44 70.4-45.7 158.9-8.8 227.1-0.1 0.1-0.2 0.1-0.2 0.2 18.6 33.5 18.9 75.9-2.8 110.7-1.2 2-2.6 3.9-3.9 5.8 0.1 0 0.2 0.1 0.2 0.1L234 802.8c-11.4 18.3-5.8 42.6 12.4 54l23.6 14.7c18.3 11.4 42.6 5.8 54-12.4l84-134.3c21.4-26.2 53.1-40.3 85.5-40 79.3 5.5 160.9-34.9 206-107 65-104.1 33.4-241.2-70.6-306.3z" fill="#E26D33" p-id="3623"></path><path d="M589.4 255.4c73 71.4 89.2 186.4 32.8 276.5-45.1 72.1-126.7 112.5-206 107-32.3-0.3-64.1 13.8-85.5 40l-84 134.3c-11.4 18.3-18.7 40.6-18.7 40.6 18.3 11.4 42.6 5.8 54-12.4l84-134.3c21.4-26.2 53.1-40.3 85.5-40 79.3 5.5 160.9-34.9 206-107 64.6-103.3 34-239-68.1-304.7z" fill="#CE6232" p-id="3624"></path><path d="M697.9 378.1c-16.1-60.1-54.7-110.4-108.6-141.5-53.9-31.1-116.7-39.4-176.8-23.3C352.4 229.4 302.1 268 271 321.9c-21.1 36.6-32.2 78.4-32.1 120.9 0.1 38.5 9.3 75.8 26.6 108.6l-0.5 0.4 5.1 8.4c18.5 30.6 18.8 68.9 1 99.8-1.2 2-72.4 125.4-72.4 125.4-6.6 11.5-8.4 25-4.9 37.9 3.5 12.9 11.7 23.7 23.2 30.3l24.1 13.9c7.7 4.4 16.2 6.7 24.8 6.7 4.4 0 8.7-0.6 13.1-1.7 12.9-3.5 23.7-11.7 30.3-23.2l8-13.9 65.2-113 5.6-9.8c18-23.5 45.3-37.4 75-38.2 2.4 0.1 4.8 0.1 7.1 0.1 82.4 0 162-46.4 204.3-119.7 31.2-53.8 39.5-116.6 23.4-176.7zM267.2 496.3l73.9 42.7-35.8 62c-1.3-14.8-5.3-29.5-12.1-43.2l0.5-0.4-4.9-8.3c-9.6-16.5-16.8-34.3-21.6-52.8z m163.9 94.6c-13.4 11.6-33.2 14.1-49.4 4.7-9.9-5.7-17-14.9-19.9-26-1.7-6.4-1.9-12.9-0.7-19.2l50.4 29.1 19.6 11.4zM273.4 851.8c-7.4 2-15 1-21.6-2.8l-24.1-13.9c-6.5-3.8-11.2-9.9-13.2-17.3s-1-15 2.8-21.6c0 0 6.1-10.6 14.7-25.5l110.3-191c5.1 14.6 15.1 26.7 28.5 34.5 10.1 5.8 21.1 8.6 32 8.6 4.4 0 8.8-0.5 13-1.3L370 700.8l-79.6 137.8c-3.5 6.5-9.6 11.2-17 13.2zM463.6 653h-0.6c-16.3 0.4-32 4.1-46.4 10.6l35.1-60.8 73.9 42.7c-20.1 5.5-41 8.2-62 7.5zM656 544.2c-24 41.5-61 73.6-103.7 91.8l-89.9-51.9-45.5-26.3-154.8-89.4c-5.5-46.1 3.7-94.4 27.6-135.7 28.2-48.9 73.8-83.9 128.4-98.5 54.6-14.6 111.6-7.1 160.5 21.1 48.9 28.2 83.9 73.8 98.5 128.4 14.6 54.6 7.1 111.6-21.1 160.5z" fill="" p-id="3625"></path><path d="M568.6 448.3m-60.5 0a60.5 60.5 0 1 0 121 0 60.5 60.5 0 1 0-121 0Z" fill="#FFFFFF" p-id="3626"></path><path d="M568.6 519.5c-39.3 0-71.3-32-71.3-71.3s32-71.3 71.3-71.3 71.3 32 71.3 71.3-32 71.3-71.3 71.3z m0-121c-27.4 0-49.8 22.3-49.8 49.8s22.3 49.8 49.8 49.8 49.8-22.3 49.8-49.8-22.4-49.8-49.8-49.8z" fill="" p-id="3627"></path><path d="M543.5 463c0-23.9 19.3-43.2 43.2-43.2 7.7 0 14.8 2 21.1 5.5-7.9-9.5-19.8-15.5-33.2-15.5-23.9 0-43.2 19.3-43.2 43.2 0 16.2 8.9 30.3 22.1 37.7-6.2-7.5-10-17.1-10-27.7z" fill="#E0E0E0" p-id="3628"></path><path d="M949 469.4H792.5c-5.9 0-10.8-4.8-10.8-10.8s4.8-10.8 10.8-10.8H949c5.9 0 10.8 4.8 10.8 10.8s-4.9 10.8-10.8 10.8z" fill="" p-id="3629"></path><path d="M839.9 535h-90.1c-5.9 0-10.8-4.8-10.8-10.8 0-5.9 4.8-10.8 10.8-10.8h90.1c5.9 0 10.8 4.8 10.8 10.8-0.1 6-4.9 10.8-10.8 10.8z" fill="" p-id="3630"></path><path d="M838.5 391h-90.1c-5.9 0-10.8-4.8-10.8-10.8s4.8-10.8 10.8-10.8h90.1c5.9 0 10.8 4.8 10.8 10.8s-4.9 10.8-10.8 10.8z" fill="" p-id="3631"></path></svg>